<svg width="288" height="44" viewBox="0 0 288 44" fill="none" xmlns="http://www.w3.org/2000/svg">
<path d="M11.4146 29.0184V25.6663V18.3336V13.3196V7.33273L19.1999 0H15.217H7.60849L3.80609 3.66814V18.3336L0 22.0017L3.80609 25.6663V40.3353L7.60849 43.9999H15.217H19.1999L11.4146 36.6672V29.0184Z" fill="#FFD600"/>
<path d="M40.6987 14.985V18.3336V25.6663V30.6803V36.6672L32.9133 43.9999H36.8963H44.5048L48.3109 40.3353V25.6663L52.1133 22.0017L48.3109 18.3336V3.66814L44.5048 0H36.8963H32.9133L40.6987 7.33273V14.985Z" fill="#FFD600"/>
<path d="M79.5004 29.2134C80.5339 29.2134 81.3365 28.9258 81.905 28.347C82.4734 27.7682 82.7489 26.9621 82.7352 25.9253H89.6456C89.6456 28.5991 88.7155 30.7936 86.8587 32.5087C84.9984 34.2203 82.6043 35.0796 79.6761 35.0796C76.2347 35.0796 73.5236 33.9682 71.5428 31.7417C69.5585 29.5188 68.5698 26.4366 68.5698 22.4986V22.1825C68.5698 19.7182 69.0108 17.5414 69.8927 15.6559C70.7745 13.7703 72.0457 12.318 73.7096 11.306C75.3735 10.294 77.3405 9.78616 79.6141 9.78616C82.6904 9.78616 85.1328 10.6668 86.9414 12.4245C88.7499 14.1822 89.6525 16.5649 89.6525 19.569H82.7421C82.7421 18.3085 82.4424 17.339 81.8464 16.6608C81.2504 15.9826 80.4478 15.6452 79.4419 15.6452C77.5334 15.6452 76.4173 16.8987 76.0969 19.4093C75.9935 20.2047 75.9453 21.3019 75.9453 22.701C75.9453 25.1511 76.2312 26.8485 76.7996 27.7966C77.3577 28.7412 78.2603 29.2134 79.5004 29.2134Z" fill="white"/>
<path d="M92.4751 22.204C92.4751 19.768 92.9333 17.6019 93.853 15.7022C94.7728 13.8024 96.0922 12.3394 97.8112 11.3167C99.5301 10.2941 101.552 9.78271 103.867 9.78271C107.409 9.78271 110.202 10.9119 112.242 13.1739C114.281 15.4358 115.304 18.511 115.304 22.4064V22.6762C115.304 26.4793 114.281 29.4941 112.231 31.7276C110.182 33.9576 107.409 35.0762 103.912 35.0762C100.543 35.0762 97.8387 34.0357 95.7994 31.9549C93.76 29.874 92.6577 27.051 92.4958 23.4894L92.4751 22.204ZM99.8436 22.6762C99.8436 24.9311 100.185 26.5823 100.87 27.6369C101.556 28.688 102.568 29.2135 103.909 29.2135C106.534 29.2135 107.874 27.1327 107.932 22.971V22.204C107.932 17.8292 106.575 15.6453 103.864 15.6453C101.401 15.6453 100.068 17.5309 99.8608 21.302L99.8436 22.6762Z" fill="white"/>
<path d="M117.703 22.2467C117.703 18.3833 118.512 15.3401 120.132 13.1172C121.751 10.8943 124.01 9.77931 126.911 9.77931C129.026 9.77931 130.804 10.6351 132.247 12.3502V0H139.64V34.6253H133.015L132.643 32.0118C131.128 34.0571 129.202 35.0763 126.87 35.0763C124.055 35.0763 121.826 33.9648 120.18 31.7384C118.526 29.5119 117.703 26.3516 117.703 22.2467ZM125.071 22.7225C125.071 27.0511 126.294 29.2137 128.744 29.2137C130.377 29.2137 131.544 28.507 132.244 27.0937V17.808C131.572 16.3663 130.421 15.6455 128.788 15.6455C126.515 15.6455 125.282 17.5381 125.092 21.327L125.071 22.7225Z" fill="white"/>
<path d="M154.554 35.0731C150.923 35.0731 147.984 33.9581 145.742 31.7246C143.496 29.4946 142.373 26.5899 142.373 23.0106V22.3785C142.373 19.8822 142.82 17.6806 143.716 15.7738C144.612 13.8669 145.921 12.3897 147.64 11.3457C149.359 10.3018 151.402 9.77979 153.761 9.77979C157.086 9.77979 159.711 10.8415 161.633 12.9685C163.559 15.0955 164.52 18.0606 164.52 21.8601V24.8144H149.869C150.13 26.1815 150.706 27.2575 151.594 28.0387C152.483 28.8199 153.634 29.2105 155.05 29.2105C157.382 29.2105 159.204 28.3689 160.517 26.6858L163.886 30.7871C162.966 32.0938 161.667 33.1343 159.983 33.9084C158.305 34.686 156.493 35.0731 154.554 35.0731ZM153.723 15.6424C151.567 15.6424 150.282 17.116 149.875 20.0597H157.31V19.4738C157.337 18.2559 157.041 17.3149 156.414 16.6437C155.787 15.9762 154.891 15.6424 153.723 15.6424Z" fill="white"/>
<path d="M173.119 27.2397C174.208 27.2397 175.114 27.6055 175.837 28.3405C176.561 29.0756 176.919 30.013 176.919 31.1564C176.919 32.2998 176.557 33.2373 175.837 33.9723C175.114 34.7073 174.211 35.0731 173.119 35.0731C172.017 35.0731 171.107 34.7038 170.391 33.9616C169.674 33.2195 169.32 32.2856 169.32 31.1564C169.32 30.0272 169.678 29.0933 170.391 28.3512C171.107 27.6126 172.017 27.2397 173.119 27.2397Z" fill="white"/>
<path d="M192.652 29.2134C193.686 29.2134 194.488 28.9258 195.057 28.347C195.625 27.7682 195.901 26.9621 195.887 25.9252H202.797C202.797 28.5991 201.867 30.7936 200.01 32.5087C198.15 34.2203 195.756 35.0796 192.828 35.0796C189.386 35.0796 186.675 33.9681 184.695 31.7417C182.71 29.5188 181.722 26.4366 181.722 22.4985V22.1825C181.722 19.7182 182.163 17.5414 183.045 15.6559C183.926 13.7703 185.198 12.318 186.861 11.3059C188.522 10.2904 190.492 9.78613 192.766 9.78613C195.842 9.78613 198.285 10.6668 200.093 12.4245C201.902 14.1822 202.804 16.5649 202.804 19.569H195.894C195.894 18.3084 195.594 17.339 194.998 16.6608C194.399 15.9861 193.6 15.6452 192.594 15.6452C190.685 15.6452 189.569 16.8987 189.249 19.4092C189.145 20.2046 189.097 21.3019 189.097 22.701C189.097 25.1511 189.383 26.8485 189.951 27.7966C190.509 28.7411 191.412 29.2134 192.652 29.2134Z" fill="white"/>
<path d="M219.609 34.6221C219.347 34.125 219.113 33.397 218.909 32.4347C217.552 34.1925 215.657 35.0731 213.225 35.0731C210.996 35.0731 209.098 34.3771 207.541 32.9887C205.981 31.6003 205.202 29.8532 205.202 27.7475C205.202 25.1021 206.149 23.1029 208.044 21.75C209.939 20.3971 212.695 19.7224 216.312 19.7224H218.585V18.4334C218.585 16.1821 217.645 15.0565 215.764 15.0565C214.014 15.0565 213.139 15.9478 213.139 17.7303H205.771C205.771 15.3761 206.742 13.4621 208.688 11.9885C210.635 10.5148 213.115 9.77979 216.133 9.77979C219.15 9.77979 221.534 10.5397 223.284 12.0559C225.034 13.5722 225.93 15.6566 225.975 18.2985V29.0969C226.002 31.3375 226.34 33.049 226.981 34.2351V34.6186H219.609V34.6221ZM214.992 29.665C215.912 29.665 216.674 29.4626 217.276 29.0578C217.883 28.653 218.317 28.1949 218.579 27.6836V23.7811H216.436C213.869 23.7811 212.588 24.9671 212.588 27.3427C212.588 28.0351 212.815 28.5926 213.267 29.0223C213.718 29.4484 214.293 29.665 214.992 29.665Z" fill="white"/>
<path d="M236.283 10.2337L236.524 13.0957C238.202 10.8871 240.455 9.78271 243.283 9.78271C246.273 9.78271 248.292 11.0078 249.339 13.4579C250.945 11.0078 253.26 9.78271 256.294 9.78271C261.09 9.78271 263.556 12.7726 263.687 18.756V34.6251H256.294V19.2282C256.294 17.9819 256.091 17.0728 255.681 16.5011C255.275 15.9294 254.531 15.6453 253.452 15.6453C251.995 15.6453 250.91 16.3129 250.194 17.6516L250.214 17.9676V34.6251H242.822V19.2708C242.822 17.9925 242.625 17.0693 242.232 16.4976C241.84 15.9259 241.089 15.6418 239.98 15.6418C238.564 15.6418 237.485 16.3094 236.741 17.6481V34.6216H229.373V10.2337H236.283Z" fill="white"/>
<path d="M287.997 22.6088C287.997 26.3941 287.17 29.4195 285.516 31.6815C283.863 33.9434 281.627 35.0726 278.813 35.0726C276.639 35.0726 274.855 34.2524 273.456 32.6154V43.9998H266.087V10.2337H272.977L273.194 12.4885C274.61 10.6847 276.467 9.78271 278.771 9.78271C281.686 9.78271 283.952 10.8906 285.572 13.1064C287.191 15.3222 288 18.3689 288 22.2466V22.6088H287.997ZM280.628 22.1365C280.628 17.8079 279.405 15.6453 276.956 15.6453C275.206 15.6453 274.042 16.2916 273.456 17.5842V27.186C274.097 28.5389 275.278 29.2136 276.997 29.2136C279.343 29.2136 280.556 27.1256 280.628 22.9461V22.1365Z" fill="white"/>
</svg>
