<svg width="49" height="48" viewBox="0 0 49 48" fill="none" xmlns="http://www.w3.org/2000/svg">
<path d="M24.5 4C13.46 4 4.5 12.96 4.5 24C4.5 35.04 13.46 44 24.5 44C35.54 44 44.5 35.04 44.5 24C44.5 12.96 35.54 4 24.5 4ZM24.5 10C27.82 10 30.5 12.68 30.5 16C30.5 19.32 27.82 22 24.5 22C21.18 22 18.5 19.32 18.5 16C18.5 12.68 21.18 10 24.5 10ZM24.5 38.4C19.5 38.4 15.08 35.84 12.5 31.96C12.56 27.98 20.5 25.8 24.5 25.8C28.48 25.8 36.44 27.98 36.5 31.96C33.92 35.84 29.5 38.4 24.5 38.4Z" fill="#BDBDBD"/>
</svg>
