<svg width="80" height="54" viewBox="0 0 80 54" fill="none" xmlns="http://www.w3.org/2000/svg">
<path d="M68.3601 26.6952C67.5684 26.6952 66.8794 26.2069 66.5721 25.4882C65.9389 24.007 65.1061 22.6338 64.1135 21.3993V10.8289C64.1135 9.80999 63.2986 8.98396 62.2935 8.98396C62.1086 8.98396 60.4297 9.01175 58.4626 9.97124C57.8094 10.29 57.0772 10.7377 56.3483 11.3611V9.84492C56.3483 8.82603 55.5335 8 54.5284 8C54.3057 8 49.6958 8.05855 46.7272 12.4482C42.8144 9.76301 37.4038 10.7607 34.7166 14.8877H33.3368C24.2247 14.8877 16.7171 21.9138 15.8991 30.8549C12.2309 31.697 10 34.4361 10 38.3797C10 39.3986 10.8149 40.2246 11.82 40.2246C12.8251 40.2246 13.6399 39.3986 13.6399 38.3797C13.6399 36.5778 14.2879 35.3287 15.9621 34.6801C16.4883 38.8959 18.51 42.8103 21.6894 45.658C23.4598 47.2453 24.5597 49.4876 24.5597 52.1551C24.5597 53.174 25.3745 54 26.3796 54H34.1448C35.1499 54 35.9648 53.174 35.9648 52.1551C35.9648 50.9986 36.8865 50.0642 38.0274 50.0642H45.7926C46.9299 50.0642 47.8552 51.0021 47.8552 52.1551C47.8552 53.174 48.67 54 49.6751 54H57.4403C58.4454 54 59.2603 53.174 59.2603 52.1551V47.7465C62.9078 45.6316 65.6647 42.2645 67.0375 38.2567H68.3601C70.3671 38.2567 72 36.6014 72 34.5668V30.385C72 28.3504 70.3671 26.6952 68.3601 26.6952ZM60.4736 13.1028V17.9926C59.4265 17.2599 58.3001 16.6417 57.1139 16.156C58.0847 14.4069 59.4056 13.5362 60.4736 13.1028V13.1028ZM41.91 14.6417C44.6529 14.6417 46.8845 16.904 46.8845 19.6845C46.8845 22.465 44.6529 24.7273 41.91 24.7273C39.1671 24.7273 36.9354 22.465 36.9354 19.6845C36.9354 16.904 39.1671 14.6417 41.91 14.6417ZM68.3601 34.5668H65.6872C64.8568 34.5668 64.1318 35.1366 63.9247 35.9518C62.9226 39.8967 60.2685 43.1866 56.6429 44.978C56.0173 45.2871 55.6204 45.9308 55.6204 46.6363V50.3102H51.1974C50.4363 48.0244 48.301 46.3743 45.7926 46.3743H38.0274C35.4661 46.3743 33.3614 48.0687 32.6198 50.3102H28.0792C27.6762 47.4812 26.2755 44.8438 24.1001 42.8936C21.1537 40.2544 19.4638 36.4578 19.4638 32.4772C19.4638 24.872 25.6156 18.5775 33.3671 18.5775C33.0858 20.8203 33.6614 22.9826 34.8836 24.7273H33.1742C32.1691 24.7273 31.3542 25.5533 31.3542 26.5722C31.3542 27.5911 32.1691 28.4171 33.1742 28.4171H50.6458C51.6509 28.4171 52.4658 27.5911 52.4658 26.5722C52.4658 25.5533 51.6509 24.7273 50.6458 24.7273H48.9364C50.9349 21.8742 51.0331 18.1514 49.3144 15.2281C50.2858 13.4403 51.6266 12.5554 52.7085 12.1179V17.2307C52.7085 18.0728 53.271 18.8079 54.0754 19.0175C58.1369 20.0757 61.5601 23.0431 63.2324 26.9552C64.1066 29.0004 66.0926 30.385 68.3601 30.385V34.5668Z" fill="#97BC62"/>
<path d="M57.4406 24.7275C56.4355 24.7275 55.6206 25.5535 55.6206 26.5724V28.5403C55.6206 29.5592 56.4355 30.3852 57.4406 30.3852C58.4457 30.3852 59.2605 29.5592 59.2605 28.5403V26.5724C59.2605 25.5535 58.4457 24.7275 57.4406 24.7275Z" fill="#97BC62"/>
<path fill-rule="evenodd" clip-rule="evenodd" d="M14.8287 2.82827C14.5163 3.14069 14.5163 3.64722 14.8287 3.95964L16.5258 5.65675L14.8286 7.35397C14.5162 7.66638 14.5162 8.17292 14.8286 8.48534C15.141 8.79776 15.6476 8.79776 15.96 8.48534L17.6572 6.78812L19.3542 8.48513C19.6666 8.79754 20.1731 8.79754 20.4856 8.48513C20.798 8.17271 20.798 7.66617 20.4856 7.35375L18.7886 5.65675L20.4855 3.95985C20.7979 3.64743 20.7979 3.1409 20.4855 2.82848C20.173 2.51606 19.6665 2.51606 19.3541 2.82848L17.6572 4.52538L15.9601 2.82827C15.6477 2.51585 15.1411 2.51585 14.8287 2.82827Z" fill="black"/>
<path fill-rule="evenodd" clip-rule="evenodd" d="M73.7677 15.8891C73.5724 16.0843 73.5724 16.4009 73.7677 16.5962L74.8283 17.6568L73.7678 18.7174C73.5725 18.9127 73.5725 19.2292 73.7678 19.4245C73.963 19.6198 74.2796 19.6198 74.4749 19.4245L75.5354 18.364L76.5961 19.4246C76.7913 19.6199 77.1079 19.6199 77.3032 19.4246C77.4985 19.2294 77.4985 18.9128 77.3032 18.7175L76.2425 17.6568L77.3033 16.5961C77.4986 16.4008 77.4986 16.0842 77.3033 15.889C77.108 15.6937 76.7915 15.6937 76.5962 15.889L75.5354 16.9497L74.4748 15.8891C74.2795 15.6938 73.9629 15.6938 73.7677 15.8891Z" fill="black"/>
<path fill-rule="evenodd" clip-rule="evenodd" d="M7.8538 46.657C7.5386 46.657 7.28307 46.9125 7.28307 47.2277V48.9399L5.57073 48.9399C5.25552 48.9399 5 49.1954 5 49.5106C5 49.8258 5.25552 50.0813 5.57073 50.0813H7.28307L7.28307 51.7936C7.28307 52.1088 7.5386 52.3643 7.8538 52.3643C8.169 52.3643 8.42453 52.1088 8.42453 51.7936L8.42453 50.0813H10.1365C10.4517 50.0813 10.7073 49.8258 10.7073 49.5106C10.7073 49.1954 10.4517 48.9399 10.1365 48.9399L8.42453 48.9399V47.2277C8.42453 46.9125 8.169 46.657 7.8538 46.657Z" fill="black"/>
<circle cx="1.5" cy="24.157" r="1.5" fill="black"/>
<circle cx="75.5" cy="47.157" r="1.5" fill="black"/>
</svg>
